<?xml version="1.0" standalone="no"?>
<!DOCTYPE svg PUBLIC "-//W3C//DTD SVG 20010904//EN"
 "http://www.w3.org/TR/2001/REC-SVG-20010904/DTD/svg10.dtd">
<svg version="1.0" xmlns="http://www.w3.org/2000/svg"
 width="220.000000pt" height="147.000000pt" viewBox="0 0 220.000000 147.000000"
 preserveAspectRatio="xMidYMid meet">

<g transform="translate(0.000000,147.000000) scale(0.100000,-0.100000)"
fill="#000000" stroke="none">
<path d="M72 1418 c-16 -16 -15 -43 3 -58 8 -7 15 -20 15 -29 0 -9 14 -28 30
-43 34 -30 33 -23 30 -278 -2 -158 -8 -176 -59 -182 -21 -2 -27 -9 -29 -35 -2
-18 1 -33 6 -33 5 0 12 -9 15 -20 3 -11 17 -24 32 -30 39 -15 307 -13 327 3
20 16 32 103 15 114 -6 4 -24 6 -38 5 -38 -4 -55 19 -63 83 -8 73 3 89 59 82
22 -3 50 -9 63 -13 32 -9 87 50 96 106 5 34 2 46 -19 75 -15 18 -41 38 -58 45
-28 9 -34 8 -49 -10 -22 -27 -88 -29 -88 -1 0 33 25 44 93 39 44 -2 72 -10 94
-26 17 -12 37 -22 45 -22 43 0 49 69 15 170 l-22 65 -250 3 c-187 2 -254 -1
-263 -10z"/>
<path d="M722 1418 c-15 -15 -16 -45 -2 -53 6 -3 10 -17 10 -31 0 -17 9 -30
29 -41 26 -16 29 -22 34 -95 8 -100 -3 -339 -16 -355 -5 -7 -20 -13 -34 -13
-50 0 -44 -90 8 -117 25 -13 442 -19 474 -7 22 9 33 41 51 139 18 103 18 102
-8 109 -17 5 -29 -1 -48 -23 -21 -24 -37 -31 -102 -41 -106 -16 -114 -10 -121
82 -10 117 6 313 26 336 9 10 17 26 17 36 0 9 4 26 10 36 7 14 6 23 -6 34 -13
13 -42 16 -163 16 -101 0 -151 -4 -159 -12z"/>
<path d="M1600 1419 c-19 -5 -82 -14 -140 -20 -58 -6 -108 -16 -112 -22 -4 -6
-1 -20 5 -31 6 -12 10 -28 9 -38 -2 -9 13 -28 33 -43 31 -24 35 -32 35 -74 0
-51 27 -267 36 -291 3 -8 7 -44 10 -79 6 -111 27 -118 268 -93 91 9 103 8 135
-9 48 -25 151 -26 179 -2 28 26 54 97 39 112 -6 6 -17 11 -25 11 -12 0 -13 35
-11 211 l4 211 28 20 c15 11 27 28 27 38 0 9 7 23 15 30 9 7 15 23 13 34 -3
20 -11 21 -168 27 -91 4 -168 5 -172 3 -4 -3 -7 -28 -6 -55 0 -39 7 -58 27
-82 25 -30 26 -36 29 -179 3 -116 1 -149 -10 -152 -7 -2 -48 -13 -92 -25 -43
-12 -81 -20 -83 -17 -3 3 -12 84 -21 182 l-15 176 31 25 c18 13 32 33 32 43 0
10 5 22 10 25 12 7 13 35 2 52 -10 16 -71 23 -112 12z"/>
<path d="M1483 579 c-6 -6 -36 -12 -66 -14 -115 -5 -187 -69 -187 -167 0 -54
32 -92 115 -139 53 -30 56 -34 39 -46 -28 -20 -47 -16 -75 19 -22 27 -29 30
-42 20 -11 -9 -14 -31 -12 -84 2 -93 11 -100 120 -92 155 11 185 35 185 144 0
83 -13 102 -104 150 -42 22 -65 40 -64 50 4 22 42 24 79 5 29 -15 33 -15 47
-1 10 10 15 30 14 53 -2 21 -3 50 -4 65 0 15 -5 25 -11 21 -9 -6 -5 -52 8 -85
11 -27 -14 -22 -37 7 -23 30 -71 34 -106 9 -18 -12 -22 -24 -20 -52 3 -35 7
-39 80 -77 89 -47 107 -66 108 -115 0 -82 -26 -103 -130 -107 -36 -1 -83 -5
-105 -8 l-40 -7 -1 44 c0 24 -2 49 -5 57 -9 29 17 19 35 -14 16 -30 23 -34 45
-28 42 10 86 38 89 57 5 25 -15 44 -78 76 -31 16 -71 45 -88 64 -27 31 -30 39
-22 67 5 17 15 38 21 46 24 28 93 55 143 57 30 1 61 9 76 19 13 9 20 17 14 17
-5 0 -15 -5 -21 -11z"/>
<path d="M1964 543 c-15 -15 -40 -19 -157 -21 -91 -2 -143 0 -150 7 -17 17
-31 13 -17 -4 10 -12 41 -15 157 -15 140 0 146 1 175 25 16 14 25 25 19 25 -5
0 -17 -8 -27 -17z"/>
<path d="M205 529 c-9 -14 3 -77 20 -103 7 -12 16 -61 20 -111 4 -49 9 -98 11
-107 3 -11 -5 -28 -22 -43 -31 -29 -21 -33 15 -6 l24 18 -13 151 c-11 132 -15
152 -32 157 -10 4 -18 15 -18 25 0 17 10 20 98 23 l97 3 -97 2 c-60 1 -99 -2
-103 -9z"/>
<path d="M864 526 c-51 -23 -102 -74 -121 -124 -27 -71 -24 -177 6 -226 30
-48 98 -92 165 -106 47 -10 58 -9 131 18 66 25 87 38 120 77 38 45 40 51 43
123 6 123 -36 193 -141 237 -45 19 -161 19 -203 1z m208 -15 c83 -36 118 -93
118 -191 0 -51 -3 -61 -25 -78 -14 -11 -25 -27 -25 -35 0 -19 -26 -40 -40 -32
-6 4 -17 -1 -24 -10 -10 -14 -16 -15 -34 -6 -18 10 -22 9 -22 -4 0 -53 -157
-29 -223 33 -41 39 -57 75 -57 129 1 82 47 156 125 196 43 23 152 22 207 -2z"/>
<path d="M884 426 c-37 -37 -45 -83 -23 -145 13 -37 80 -86 127 -93 28 -4 37
1 62 28 58 67 45 170 -28 219 -53 36 -96 33 -138 -9z m124 -56 c36 -22 65 -78
55 -107 -11 -33 -46 -63 -73 -63 -36 0 -106 52 -114 83 -8 33 7 71 36 91 30
21 56 20 96 -4z"/>
<path d="M1586 496 c-27 -71 -31 -110 -11 -130 11 -11 24 -14 34 -10 9 4 34 8
56 8 37 1 41 -2 52 -34 9 -23 10 -58 6 -105 -13 -137 -5 -155 67 -155 42 0 51
4 72 32 l25 33 -83 -3 c-55 -2 -84 0 -84 7 0 6 9 11 21 11 11 0 18 4 15 8 -3
5 -7 39 -10 76 -4 57 -2 67 11 62 8 -3 16 -6 19 -6 2 0 1 -6 -2 -14 -6 -17 12
-31 21 -16 7 12 25 4 25 -11 0 -6 -6 -7 -12 -3 -7 4 -5 -2 5 -13 9 -11 17 -28
17 -39 0 -23 18 -44 37 -44 8 0 6 7 -7 20 -11 11 -20 28 -21 38 0 9 -2 28 -3
41 -2 14 2 45 9 70 11 46 12 46 56 47 24 1 52 2 62 3 10 1 24 15 31 34 13 31
29 137 21 137 -2 0 -11 -25 -20 -55 -15 -53 -44 -83 -53 -57 -2 7 -25 12 -56
12 l-52 0 4 -35 c3 -26 0 -36 -12 -41 -12 -5 -14 -10 -6 -19 14 -17 2 -65 -16
-65 -8 0 -17 13 -20 29 -4 17 -14 31 -25 34 -15 4 -19 14 -19 51 l0 46 -52 0
c-39 0 -57 -5 -75 -22 -13 -12 -26 -19 -29 -15 -8 7 15 108 29 125 6 8 6 12 0
12 -6 0 -18 -20 -27 -44z"/>
<path d="M471 526 c2 -3 49 -6 102 -8 67 -1 97 -6 97 -14 0 -6 -11 -15 -25
-18 -20 -5 -25 -13 -27 -39 -1 -17 -3 -52 -5 -77 -1 -25 -3 -54 -4 -65 -4 -69
8 -119 34 -141 15 -13 27 -26 27 -29 0 -3 -49 -5 -110 -5 -100 0 -109 -2 -103
-17 11 -34 35 -43 114 -43 81 0 91 5 102 50 5 17 0 31 -15 47 -19 20 -21 33
-20 118 1 60 7 106 16 123 8 15 16 47 18 72 l3 45 -105 3 c-58 2 -102 1 -99
-2z"/>
<path d="M388 501 c-13 -12 -18 -34 -18 -68 0 -58 7 -63 93 -63 l47 0 0 54 c0
51 -2 56 -32 70 -29 15 -30 15 -15 -1 8 -10 18 -39 22 -65 l7 -48 -33 0 c-50
0 -63 12 -54 46 9 33 12 94 5 93 -3 0 -13 -8 -22 -18z"/>
<path d="M370 236 c0 -52 3 -66 15 -66 8 0 25 -10 37 -22 19 -19 22 -20 33 -5
7 10 16 17 20 17 5 0 16 7 26 16 14 12 22 13 38 4 23 -12 29 2 12 29 -6 10
-10 10 -16 1 -10 -17 -25 7 -25 42 0 33 -1 34 -77 43 l-63 7 0 -66z m114 -22
c21 -20 21 -19 -15 -44 -29 -21 -31 -21 -50 -5 -19 18 -25 46 -12 58 12 13 62
7 77 -9z"/>
<path d="M225 122 c6 -4 15 -16 21 -27 9 -17 23 -20 85 -23 81 -3 118 11 106
42 -5 13 -23 16 -114 16 -59 0 -103 -4 -98 -8z"/>
</g>
</svg>
