<?xml version="1.0" standalone="no"?>
<!DOCTYPE svg PUBLIC "-//W3C//DTD SVG 20010904//EN"
 "http://www.w3.org/TR/2001/REC-SVG-20010904/DTD/svg10.dtd">
<svg version="1.0" xmlns="http://www.w3.org/2000/svg"
 width="381.000000pt" height="400.000000pt" viewBox="0 0 381.000000 400.000000"
 preserveAspectRatio="xMidYMid meet">

<g transform="translate(0.000000,400.000000) scale(0.100000,-0.100000)"
fill="#000000" stroke="none">
<path d="M870 2790 c0 -253 -1 -260 -20 -260 -19 0 -20 -7 -20 -90 0 -83 1
-90 20 -90 19 0 20 -7 21 -127 0 -71 2 -136 4 -145 4 -22 -8 -23 -26 -2 -7 8
-31 25 -53 37 -38 20 -58 22 -263 25 -198 3 -223 2 -223 -12 0 -14 25 -16 206
-16 130 0 221 -4 246 -12 48 -14 121 -76 138 -118 16 -38 25 -33 10 5 -10 27
-10 27 18 22 56 -11 72 0 72 52 l0 46 242 0 c182 0 242 3 245 12 4 10 -47 13
-218 15 l-222 3 2 99 c1 55 4 104 7 108 3 4 86 8 185 8 l179 0 0 90 0 90 -185
0 -185 0 0 170 0 170 220 0 220 0 0 90 0 90 -310 0 -310 0 0 -260z"/>
<path d="M1610 2619 c0 -404 -1 -431 -18 -436 -13 -3 -17 -14 -17 -41 l-1 -37
93 3 93 3 0 -49 c0 -43 3 -50 23 -56 29 -8 166 -8 206 0 30 6 32 10 31 43 -1
20 -2 42 -1 49 1 9 26 12 91 12 96 0 125 17 38 22 -48 3 -53 5 -52 26 1 22 0
22 -153 22 l-153 0 0 435 0 435 -90 0 -90 0 0 -431z"/>
<path d="M2182 2623 l3 -428 29 -53 c28 -50 77 -102 97 -102 5 0 9 16 9 35 l0
35 310 0 c200 0 310 4 310 10 0 6 -35 10 -85 10 -75 0 -85 2 -85 18 0 10 6 24
13 30 9 10 13 116 15 442 l3 430 -95 0 -95 0 -3 -401 -3 -401 -33 -29 c-26
-24 -41 -29 -82 -29 -41 0 -56 5 -82 29 l-33 29 -3 401 -3 401 -95 0 -95 0 3
-427z"/>
<path d="M0 1980 l0 -619 63 24 c35 13 91 29 125 36 l62 13 0 63 c0 38 4 63
11 63 5 0 8 4 5 9 -6 8 16 33 25 28 2 -1 1 2 -3 8 -13 15 -9 73 4 78 10 4 10
6 1 6 -18 1 -19 451 -1 469 8 8 58 12 157 12 l145 0 -40 30 c-46 33 -64 66
-64 116 0 37 -68 183 -103 221 -38 42 -79 47 -160 23 -82 -25 -118 -22 -176
14 -22 14 -43 26 -46 26 -3 0 -5 -279 -5 -620z"/>
<path d="M3050 2120 c0 -6 37 -10 90 -10 53 0 90 4 90 10 0 6 -37 10 -90 10
-53 0 -90 -4 -90 -10z"/>
<path d="M538 1765 c3 -159 4 -165 24 -165 15 0 18 4 12 18 -4 9 -9 58 -12
108 -6 137 23 177 114 160 33 -7 35 -6 25 12 -14 27 -32 32 -104 32 l-62 0 3
-165z"/>
<path d="M296 1643 c-6 -14 -5 -15 5 -6 7 7 10 15 7 18 -3 3 -9 -2 -12 -12z"/>
<path d="M740 1612 c0 -7 -15 -21 -32 -32 -26 -16 -51 -20 -120 -20 -51 0 -88
-4 -88 -10 0 -28 168 -25 213 4 26 18 44 52 33 63 -3 4 -6 1 -6 -5z"/>
<path d="M1760 1609 c0 -89 210 -108 249 -23 17 38 14 39 -18 5 -27 -29 -33
-31 -101 -31 -66 0 -74 2 -101 29 -16 16 -29 25 -29 20z"/>
<path d="M2283 1598 c2 -7 12 -13 22 -13 10 0 20 6 23 13 2 7 -6 12 -23 12
-17 0 -25 -5 -22 -12z"/>
<path d="M2502 1598 c4 -10 52 -14 186 -16 158 -2 182 0 182 13 0 13 -26 15
-186 15 -144 0 -185 -3 -182 -12z"/>
<path d="M293 1573 c-15 -5 -17 -29 -4 -37 12 -8 31 17 23 30 -4 6 -13 9 -19
7z"/>
<path d="M1606 1421 c-9 -16 -16 -36 -16 -43 1 -7 10 4 21 25 11 22 18 41 15
44 -2 3 -12 -9 -20 -26z"/>
<path d="M2150 1443 c1 -12 39 -79 40 -70 0 12 -28 77 -34 77 -4 0 -6 -3 -6
-7z"/>
<path d="M1000 1250 c0 -6 31 -10 74 -10 41 0 78 5 81 10 4 6 -23 10 -74 10
-47 0 -81 -4 -81 -10z"/>
<path d="M1330 1250 c0 -6 33 -10 80 -10 47 0 80 4 80 10 0 6 -33 10 -80 10
-47 0 -80 -4 -80 -10z"/>
<path d="M2500 1250 c0 -6 80 -10 220 -10 140 0 220 4 220 10 0 6 -80 10 -220
10 -140 0 -220 -4 -220 -10z"/>
<path d="M3010 1250 c0 -5 9 -10 20 -10 11 0 20 5 20 10 0 6 -9 10 -20 10 -11
0 -20 -4 -20 -10z"/>
<path d="M3225 1250 c4 -6 68 -10 161 -10 96 0 154 4 154 10 0 6 -60 10 -161
10 -104 0 -158 -3 -154 -10z"/>
<path d="M3685 1084 c-27 -13 -60 -24 -73 -24 -12 0 -38 -7 -58 -15 -25 -10
-51 -12 -97 -7 -34 4 -99 6 -144 4 l-83 -3 0 -28 c0 -42 -24 -56 -102 -58 -61
-1 -72 -4 -103 -32 -38 -33 -76 -39 -119 -20 -17 8 -48 9 -110 1 -68 -8 -91
-15 -116 -36 l-31 -26 -297 6 c-355 6 -317 6 -427 1 -98 -5 -167 -20 -183 -40
-13 -15 -66 -166 -78 -221 -10 -43 -32 -63 -58 -53 -18 7 -73 117 -82 166 -9
42 -27 55 -61 44 -17 -6 -36 -24 -49 -49 -11 -21 -36 -50 -55 -62 -31 -21 -41
-23 -106 -17 -78 7 -116 -7 -128 -46 -4 -11 -21 -27 -39 -36 -30 -14 -36 -14
-67 0 -19 9 -56 21 -83 27 -47 10 -50 10 -94 -25 -25 -19 -63 -41 -85 -47 -46
-14 -68 -48 -49 -79 31 -48 -1 -119 -53 -119 -17 0 -29 9 -40 30 -8 16 -15 34
-15 40 0 7 -9 23 -20 37 -24 31 -26 79 -4 133 15 38 15 42 -2 61 -38 42 -85
63 -139 61 -29 -1 -67 3 -85 8 -36 10 -56 3 -103 -36 -33 -28 -76 -31 -137 -9
-23 8 -58 15 -76 15 l-34 0 0 -315 0 -315 234 0 c129 0 246 4 259 9 19 7 30
25 47 75 12 36 30 76 39 88 18 22 19 22 46 4 19 -13 45 -18 86 -17 47 0 63 -4
86 -23 16 -13 45 -31 65 -39 32 -14 38 -21 44 -56 l7 -41 1119 0 1120 0 -6 23
c-16 55 -18 107 -6 122 31 37 142 9 210 -52 89 -80 176 -103 310 -85 69 10 78
14 108 49 43 49 39 86 -17 172 -22 35 -41 72 -41 82 0 21 37 34 75 27 l25 -5
0 388 0 389 -37 -1 c-21 0 -60 -11 -88 -25z m-1763 -534 c47 -14 79 -52 112
-137 25 -63 26 -71 13 -113 -13 -46 -34 -63 -89 -75 -15 -3 -60 -35 -100 -71
-40 -36 -90 -75 -111 -86 -39 -19 -67 -19 -67 2 0 7 -12 41 -26 77 -26 64 -26
66 -10 122 9 32 16 78 16 104 0 34 5 52 19 63 33 28 75 70 98 98 17 21 30 26
65 26 24 0 60 -5 80 -10z"/>
<path d="M0 836 c0 -22 3 -27 11 -19 8 8 8 16 0 30 -9 16 -10 14 -11 -11z"/>
</g>
</svg>
